<svg width="24" height="24" viewBox="0 0 24 24" fill="none" xmlns="http://www.w3.org/2000/svg">
<path d="M13.0682 6.45614C13.0682 3.9961 15.0682 2 17.5243 2C19.9805 2 21.9805 4 21.9805 6.45614C21.9805 8.91228 19.9805 10.9123 17.5243 10.9123C15.0643 10.9123 13.0682 8.91228 13.0682 6.45614ZM6.47561 13.0877C4.01947 13.0877 2.01947 15.0877 2.01947 17.5439C2.01947 20 4.01947 22 6.47561 22C8.93175 22 10.9318 20 10.9318 17.5439C10.9318 15.0877 8.93565 13.0877 6.47561 13.0877ZM6.47561 2C4.01947 2 2.01947 3.9961 2.01947 6.45614C2.01947 8.91228 4.01947 10.9123 6.47561 10.9123C8.93175 10.9123 10.9318 8.91228 10.9318 6.45614C10.9318 3.9961 8.93565 2 6.47561 2ZM17.5243 13.0877C15.0682 13.0877 13.0682 15.0877 13.0682 17.5439C13.0682 20 15.0682 22 17.5243 22C19.9805 22 21.9805 20.0039 21.9805 17.5439C21.9805 15.0838 19.9805 13.0877 17.5243 13.0877Z" fill="#FAFDFF"/>
</svg>
