<svg width="24" height="24" viewBox="0 0 24 24" fill="none" xmlns="http://www.w3.org/2000/svg">
<path d="M12.2971 13.1436L4.20793 18.595C4.03207 18.7708 3.7683 18.6829 3.59244 18.5071C3.50452 18.4191 3.50452 18.3312 3.50452 18.2433V5.75775C3.50452 5.49397 3.68037 5.31812 3.94415 5.31812C4.03207 5.31812 4.12 5.31812 4.20793 5.40604L12.2971 10.7695V5.75775C12.2971 5.49397 12.473 5.31812 12.7368 5.31812C12.8247 5.31812 12.9126 5.31812 13.0006 5.40604L22.3207 11.6488C22.4966 11.8247 22.5845 12.0884 22.4087 12.2643C22.4087 12.3522 22.3207 12.3522 22.3207 12.3522L13.0006 18.595C12.8247 18.7708 12.5609 18.6829 12.3851 18.5071C12.2971 18.4191 12.2971 18.3312 12.2971 18.2433V13.1436Z" fill="#FAFDFF"/>
</svg>
