<svg width="24" height="24" viewBox="0 0 24 24" fill="none" xmlns="http://www.w3.org/2000/svg">
<path d="M17 2H7C6.43168 2 5.88664 2.22576 5.48478 2.62763C5.08291 3.02949 4.85715 3.57454 4.85715 4.14286V19.8571C4.85715 20.4255 5.08291 20.9705 5.48478 21.3724C5.88664 21.7742 6.43168 22 7 22H17C17.5683 22 18.1134 21.7742 18.5152 21.3724C18.9171 20.9705 19.1429 20.4255 19.1429 19.8571V4.14286C19.1429 3.57454 18.9171 3.02949 18.5152 2.62763C18.1134 2.22576 17.5683 2 17 2ZM12.7143 19.8571H11.2857C11.0963 19.8571 10.9146 19.7819 10.7806 19.6479C10.6467 19.514 10.5714 19.3323 10.5714 19.1429C10.5714 18.9534 10.6467 18.7717 10.7806 18.6378C10.9146 18.5038 11.0963 18.4286 11.2857 18.4286H12.7143C12.9037 18.4286 13.0854 18.5038 13.2194 18.6378C13.3533 18.7717 13.4286 18.9534 13.4286 19.1429C13.4286 19.3323 13.3533 19.514 13.2194 19.6479C13.0854 19.7819 12.9037 19.8571 12.7143 19.8571ZM17.7143 17H6.28572V4.85714H17.7143V17Z" fill="#FAFDFF"/>
</svg>
