<svg width="20" height="20" viewBox="0 0 20 20" fill="none" xmlns="http://www.w3.org/2000/svg">
<path d="M8.83594 14.1191C9.05013 14.1191 9.24788 14.2359 9.35059 14.4238L10.1006 15.7959L11.4717 16.5459C11.6594 16.6488 11.7764 16.8456 11.7764 17.0596C11.7764 17.2737 11.6594 17.4704 11.4717 17.5732L10.1006 18.3242L9.35059 19.6953C9.24787 19.8832 9.05011 20 8.83594 20C8.62195 19.9998 8.4249 19.8831 8.32227 19.6953L7.57227 18.3242L6.20117 17.5732C6.01345 17.4704 5.8965 17.2737 5.89648 17.0596C5.89648 16.8456 6.01346 16.6488 6.20117 16.5459L7.57227 15.7959L8.32227 14.4238C8.4249 14.236 8.62193 14.1193 8.83594 14.1191ZM15.8115 7.38477C16.0258 7.38477 16.2235 7.50146 16.3262 7.68945L17.5176 9.86816L19.6953 11.0596C19.8831 11.1624 19.9999 11.3592 20 11.5732C20 11.7875 19.8832 11.9852 19.6953 12.0879L17.5176 13.2793L16.3262 15.458C16.2235 15.6458 16.0258 15.7627 15.8115 15.7627C15.5974 15.7627 15.4006 15.6457 15.2979 15.458L14.1064 13.2793L11.9277 12.0879C11.7397 11.9852 11.623 11.7875 11.623 11.5732C11.6231 11.3593 11.7399 11.1624 11.9277 11.0596L14.1064 9.86816L15.2979 7.68945C15.4005 7.50149 15.5973 7.3848 15.8115 7.38477ZM5.87891 0C6.09286 0 6.28968 0.116895 6.39258 0.304688L8.18262 3.57617L11.4531 5.36523C11.6411 5.46808 11.7578 5.6658 11.7578 5.87988C11.7578 6.094 11.641 6.29086 11.4531 6.39355L8.18262 8.18359L6.39258 11.4551C6.28966 11.6428 6.09297 11.7598 5.87891 11.7598C5.66485 11.7597 5.46798 11.6428 5.36523 11.4551L3.57617 8.18359L0.304688 6.39355C0.116964 6.29068 5.80839e-07 6.09389 0 5.87988C0 5.66572 0.116965 5.46893 0.304688 5.36621L3.57617 3.57617L5.36523 0.304688C5.46796 0.116883 5.6648 2.16026e-05 5.87891 0Z" fill="#FAFDFF"/>
</svg>
